<?xml version="1.0" encoding="UTF-8" standalone="no"?>
<svg
   xmlns:dc="http://purl.org/dc/elements/1.1/"
   xmlns:cc="http://creativecommons.org/ns#"
   xmlns:rdf="http://www.w3.org/1999/02/22-rdf-syntax-ns#"
   xmlns:svg="http://www.w3.org/2000/svg"
   xmlns="http://www.w3.org/2000/svg"
   version="1.1"
   id="svg2"
   viewBox="0 0 100 50"
   height="50"
   width="100">
  <defs
     id="defs4" />
  <metadata
     id="metadata7">
    <rdf:RDF>
      <cc:Work
         rdf:about="">
        <dc:format>image/svg+xml</dc:format>
        <dc:type
           rdf:resource="http://purl.org/dc/dcmitype/StillImage" />
        <dc:title></dc:title>
      </cc:Work>
    </rdf:RDF>
  </metadata>
  <g
     transform="translate(0,-1002.3622)"
     id="layer1">
    <g
       transform="matrix(0.29370845,0,0,0.29370845,-8.3987315,917.76108)"
       id="layer1-4">
      <path
         style="fill:#3d3e05;fill-opacity:1"
         d="m 261.29172,449.71664 c -1.37896,-0.1301 -7.09538,-0.26152 -12.70314,-0.29203 -5.60777,-0.0305 -12.17611,-0.19214 -14.5963,-0.35917 -4.08796,-0.28211 -4.57023,-0.38922 -6.79327,-1.50873 -2.55225,-1.28529 -3.34814,-2.35333 -3.34814,-4.49308 0,-0.62426 -0.22779,-1.12377 -0.60441,-1.32532 -0.9046,-0.48413 -9.44528,-0.35338 -10.26012,0.15707 -0.37154,0.23275 -2.4508,0.5206 -4.6801,0.6479 -2.20634,0.126 -5.89192,0.51361 -8.19018,0.86136 -5.04924,0.76402 -6.22109,0.79299 -6.46406,0.15984 -0.15033,-0.39178 -0.37101,-0.40895 -1.20579,-0.0939 -0.77974,0.29432 -1.27455,0.29028 -2.08881,-0.0171 -0.92041,-0.34742 -1.2216,-0.31156 -2.19201,0.261 -0.9662,0.57008 -1.73606,0.66376 -5.45445,0.66376 -3.46458,0 -5.04377,0.16879 -7.90529,0.84492 -3.56082,0.84136 -3.58957,0.84262 -6.84453,0.29835 -3.18148,-0.53198 -3.48957,-0.52355 -11.54818,0.31588 -13.64144,1.42099 -15.98069,1.57066 -23.65698,1.51374 -5.41445,-0.0402 -8.25773,0.0897 -10.77876,0.49204 -4.42017,0.70555 -15.38111,0.72895 -21.14625,0.0452 -5.33794,-0.63312 -8.157896,-0.62861 -11.700256,0.0187 -1.861866,0.34026 -5.727422,0.57269 -11.21239,0.67422 -7.759584,0.1436 -8.514099,0.10565 -10.331854,-0.51975 -1.473413,-0.50693 -2.841407,-0.67719 -5.502273,-0.68479 -1.947725,-0.006 -5.722582,-0.20854 -8.388571,-0.45103 -3.09465,-0.2815 -5.814205,-0.34476 -7.521599,-0.17496 -2.112842,0.21013 -2.829799,0.16445 -3.414747,-0.21755 -0.407214,-0.26592 -1.535457,-0.48685 -2.507195,-0.49094 -1.237083,-0.005 -2.017371,-0.20343 -2.602536,-0.66115 -0.599996,-0.46932 -1.366145,-0.65582 -2.716135,-0.66114 -3.039738,-0.0121 -3.882816,-0.30294 -5.012838,-1.7297 -0.746469,-0.9425 -0.976669,-1.51932 -0.833687,-2.08901 0.287469,-1.14535 2.726708,-1.94817 6.389752,-2.10302 3.737986,-0.15802 4.073989,-0.25543 3.356426,-0.97299 -0.325711,-0.32572 -0.455066,-0.79774 -0.328177,-1.19753 0.115194,-0.36295 0.332823,-1.88903 0.48362,-3.39128 0.150796,-1.50226 0.461941,-3.97791 0.691432,-5.50145 l 0.417256,-2.77007 -1.059932,-1.09357 c -2.764255,-2.85199 -3.266406,-5.38431 -2.761357,-13.92533 0.212002,-3.58529 0.454396,-7.70704 0.538644,-9.15943 0.0951,-1.6395 0.336131,-2.84358 0.6357,-3.17579 0.265384,-0.29428 0.729791,-1.96417 1.032014,-3.71085 0.302224,-1.74669 0.703068,-3.62708 0.890768,-4.17867 0.187694,-0.55158 0.484986,-1.59282 0.660639,-2.31385 0.175655,-0.72104 0.529044,-1.4732 0.785311,-1.67146 0.431582,-0.33392 0.615449,-1.83837 0.538793,-4.40852 -0.02095,-0.70205 -0.450442,-1.5159 -1.323335,-2.50756 -0.710788,-0.8075 -1.398056,-1.94952 -1.527271,-2.53782 -0.301028,-1.37056 0.09121,-4.00938 0.684081,-4.60224 1.427334,-1.42735 2.725501,-9.54932 2.229562,-13.94926 l -0.170905,-1.51626 -2.050899,-0.19989 c -1.127996,-0.10995 -2.502195,-0.35229 -3.053781,-0.53854 -0.551586,-0.18623 -1.679824,-0.53934 -2.5072,-0.78465 -1.195819,-0.35457 -1.724829,-0.77178 -2.579564,-2.03442 -0.591386,-0.87362 -1.166332,-2.14306 -1.27766,-2.821 -0.111329,-0.67793 -0.328378,-1.53346 -0.482332,-1.90118 -0.611376,-1.46025 -0.655806,-1.95385 -0.362375,-4.02581 0.267944,-1.89207 0.504019,-2.38531 1.951641,-4.07771 0.905752,-1.0589 2.104473,-2.60567 2.66382,-3.43725 1.189069,-1.76779 3.589592,-4.0581 5.038946,-4.80758 0.559582,-0.28937 1.123255,-0.86626 1.252606,-1.28196 0.129351,-0.4157 1.679785,-2.12445 3.44541,-3.79722 l 3.210226,-3.04139 0.122878,-2.70584 c 0.113227,-2.4933 0.06003,-2.76869 -0.677317,-3.50604 -0.546738,-0.54674 -1.339897,-0.86411 -2.504096,-1.00199 -4.389144,-0.51983 -5.244796,-1.94325 -2.629071,-4.37355 1.730098,-1.60746 2.187099,-2.63475 2.187099,-4.91635 0,-0.90734 0.116798,-1.6497 0.259555,-1.6497 0.142753,0 0.202168,-0.60173 0.132035,-1.33718 -0.07378,-0.77372 0.01694,-1.33717 0.215322,-1.33717 0.188566,0 0.438543,-0.4357 0.555503,-0.96822 0.305364,-1.39031 1.024121,-1.86412 3.839852,-2.53117 2.511344,-0.59494 4.433164,-1.3271 5.360824,-2.04235 0.275792,-0.21265 1.137754,-0.48314 1.915471,-0.60111 1.337048,-0.2028 1.511619,-0.12788 3.206555,1.37629 4.183037,3.71223 5.646132,4.76656 6.614518,4.76656 1.085615,0 2.303775,1.02597 2.303775,1.94031 0,0.33172 -0.439602,1.29631 -0.976891,2.14354 -1.230543,1.94036 -1.290974,2.3839 -0.605026,4.44063 0.306606,0.91931 0.713895,2.42362 0.905091,3.34293 0.191196,0.91931 0.426364,2.01712 0.522595,2.43958 0.132625,0.5822 -0.151166,1.09099 -1.172573,2.10225 -0.741148,0.73377 -1.347544,1.5623 -1.347544,1.84116 0,0.28753 0.769145,0.85914 1.776763,1.32044 2.048157,0.93768 3.131035,1.97426 3.291908,3.15116 0.104323,0.76322 0.233222,0.8183 1.700769,0.72692 0.873342,-0.0543 1.587727,0.0253 1.587523,0.17709 -10e-4,0.71648 6.546275,-0.19565 13.539245,-1.88624 1.470892,-0.35559 3.351288,-0.78775 4.178663,-0.96037 0.827381,-0.1726 3.760803,-0.83653 6.518724,-1.47538 2.757912,-0.63887 7.571742,-1.56195 10.697392,-2.05131 12.10466,-1.89515 17.87138,-3.15208 31.49527,-6.86475 3.11044,-0.84763 3.59312,-1.12443 4.10166,-2.35214 0.43682,-1.05458 1.00817,-1.36374 1.00817,-0.54552 0,0.59485 1.31878,0.30108 1.56839,-0.34939 0.096,-0.25027 0.38416,-0.45504 0.64029,-0.45504 0.25611,0 0.46567,-0.15043 0.46567,-0.3343 0,-0.18386 0.21712,-0.33429 0.48249,-0.33429 0.26535,0 0.69769,-0.30724 0.9607,-0.68276 0.26303,-0.37552 1.00726,-0.76861 1.65385,-0.87354 l 1.17563,-0.19078 0.24115,1.79285 c 0.13263,0.98606 0.39156,1.97896 0.5754,2.20646 0.18385,0.22748 0.24694,0.64116 0.14022,0.91929 -0.10674,0.27814 -0.0323,0.5057 0.16551,0.5057 0.19776,0 0.27298,0.22566 0.16714,0.50145 -0.10583,0.27579 -0.0378,0.50143 0.15111,0.50143 0.18895,0 0.25056,0.15043 0.13693,0.33429 -0.11363,0.18386 -0.0473,0.3343 0.14742,0.3343 0.19471,0 0.35403,0.34586 0.35403,0.76858 0,1.03534 -1.36768,1.49982 -5.18229,1.75997 -1.65434,0.11283 -3.68485,0.40665 -4.51222,0.65294 -0.82738,0.2463 -2.63257,0.68938 -4.01153,0.98462 -1.37896,0.29523 -5.66627,1.49955 -9.52735,2.67625 -7.50102,2.28601 -18.11932,5.1922 -18.97062,5.1922 -0.28395,0 -0.97855,0.52651 -1.54358,1.17002 -0.565,0.64352 -1.18232,1.17003 -1.37179,1.17003 -0.18949,0 -0.34451,0.15043 -0.34451,0.33429 0,0.18386 -0.23038,0.33429 -0.51194,0.33429 -0.28156,0 -0.60905,0.26326 -0.72777,0.58502 -0.11871,0.32175 -0.37724,0.69235 -0.57452,0.82354 -0.19728,0.13119 -0.37167,0.35684 -0.38755,0.50144 -0.0508,0.46274 -0.49678,1.56286 -1.19069,2.93726 -0.37131,0.73544 -0.70011,1.86369 -0.73066,2.5072 -0.0513,1.08071 -0.14487,1.1784 -1.22556,1.27973 -1.672,0.15678 -1.98248,0.50892 -6.184431,7.01417 -0.603586,0.93444 -1.9863,2.54035 -3.092214,3.59135 -0.597545,0.56789 -1.08645,1.19377 -1.08645,1.39088 0,0.1971 -0.235182,0.44862 -0.522629,0.55892 -0.287447,0.1103 -0.438742,0.33628 -0.336215,0.50217 0.102532,0.16589 -0.0599,0.39614 -0.360951,0.51167 -0.30105,0.11552 -0.467335,0.29008 -0.369518,0.38789 0.09782,0.0978 -0.791597,1.1473 -1.976482,2.33219 -1.997783,1.99778 -2.261389,2.15433 -3.627538,2.15433 -1.570598,0 -4.872184,1.0816 -5.637382,1.8468 -0.253783,0.25378 -0.559225,0.36362 -0.678762,0.24408 -0.273758,-0.27376 -0.0025,17.7908 0.306492,20.40168 l 0.228741,1.93351 -1.365369,0.57368 c -0.855293,0.35937 -1.366639,0.79224 -1.36877,1.1587 -0.002,0.32175 -0.139747,0.58501 -0.306397,0.58501 -0.166649,0 -0.224319,0.30086 -0.128159,0.66859 0.09616,0.36773 0.04446,0.66923 -0.11487,0.67002 -0.159338,0.001 -0.298435,1.24185 -0.309103,2.75792 -0.0212,3.01167 -0.698096,4.73426 -2.801896,7.13036 -1.300642,1.48135 -2.018199,2.88672 -2.541959,4.97853 -0.35569,1.42058 -1.996392,5.53569 -3.212992,8.05863 -0.184688,0.38301 -1.0705,1.66168 -1.968469,2.8415 -1.209442,1.58904 -1.637755,2.44841 -1.652266,3.31514 -0.01077,0.64351 -0.313769,1.54611 -0.673314,2.00576 -0.830528,1.06177 -0.849749,3.07899 -0.0462,4.84774 0.793716,1.74712 0.317892,3.87729 -0.931983,4.17235 -0.438436,0.1035 -0.961825,0.48562 -1.163086,0.84916 -0.201262,0.36354 -0.516364,0.77381 -0.700225,0.91171 -0.2119,0.15893 -0.165621,0.35943 0.126402,0.54763 0.253382,0.16331 0.357327,0.46417 0.230991,0.66859 -0.126337,0.20443 -0.07039,0.37166 0.124318,0.37166 0.194713,0 0.354023,0.29886 0.354023,0.6641 0,0.44508 0.392337,0.82804 1.189565,1.16114 0.654259,0.27337 1.577139,0.8019 2.050843,1.17451 0.482922,0.37987 1.362471,0.67749 2.002182,0.67749 1.503721,0 2.536426,1.13062 3.418532,3.74268 0.375524,1.112 0.949703,2.22434 1.275944,2.47186 0.699117,0.53044 2.303509,0.61502 2.598933,0.13703 0.134137,-0.21704 7.322957,-0.33201 20.495195,-0.32777 11.158719,0.003 24.275029,-0.14933 29.147359,-0.33978 14.5429,-0.5685 77.19268,-1.33192 82.02632,-0.99955 1.80119,0.12386 2.0273,0.0603 2.74188,-0.77042 0.57449,-0.6679 1.08995,-0.90541 1.96486,-0.90541 0.65234,0 1.18607,0.11778 1.18607,0.26175 0,0.3576 1.30191,0.24159 2.44538,-0.2179 0.51759,-0.20798 1.08171,-0.37815 1.2536,-0.37815 0.1719,0 0.31253,-0.92952 0.31253,-2.0656 0,-2.10936 -0.56157,-4.28598 -1.1058,-4.28598 -0.1666,0 -0.21631,-0.22564 -0.11048,-0.50142 0.10583,-0.2758 0.0378,-0.50145 -0.15111,-0.50145 -0.18894,0 -0.25056,-0.15043 -0.13693,-0.3343 0.11363,-0.18386 0.0312,-0.33429 -0.18317,-0.33429 -0.21439,0 -0.30321,-0.22565 -0.19737,-0.50143 0.10582,-0.27581 0.0588,-0.50145 -0.10452,-0.50145 -0.58243,0 -1.33595,-3.23856 -1.6678,-7.16804 -0.18543,-2.19574 -0.25354,-4.07614 -0.15135,-4.17867 0.36002,-0.36122 6.75404,-0.62124 16.17739,-0.65788 12.65731,-0.0492 19.94526,-1.08789 20.52012,-2.92451 0.10596,-0.33854 -0.14306,-1.67057 -0.55338,-2.96005 -0.5806,-1.82459 -0.87319,-2.32003 -1.31942,-2.23409 -0.31536,0.0608 -1.18734,-0.46378 -1.93775,-1.16557 l -1.36434,-1.27599 0.37916,-1.7599 c 0.20855,-0.96795 0.60262,-1.98336 0.87574,-2.25648 0.27312,-0.27311 0.373,-0.50114 0.22198,-0.50673 -0.15104,-0.006 -0.0175,-0.16 0.29653,-0.34315 0.31502,-0.18365 0.48636,-0.55386 0.3821,-0.82556 -0.10396,-0.27093 -0.0388,-0.4926 0.14473,-0.4926 0.52962,0 1.40886,-2.55201 1.41321,-4.10186 0.002,-0.77769 0.22604,-2.24135 0.49747,-3.25258 0.27143,-1.01125 0.49529,-2.90111 0.49747,-4.19971 0.004,-2.18946 -0.0689,-2.43091 -0.99892,-3.32189 -0.55157,-0.52846 -1.00287,-1.23355 -1.00287,-1.56687 0,-0.33332 -0.15043,-0.60605 -0.33429,-0.60605 -0.20128,0 -0.33429,-1.37345 -0.33429,-3.4518 0,-3.30015 0.0386,-3.48742 0.88001,-4.26224 0.48401,-0.44574 1.5404,-1.83264 2.34753,-3.082 1.16944,-1.81017 1.7683,-2.40048 2.94832,-2.90631 0.96993,-0.41576 1.759,-1.07541 2.28712,-1.91201 0.44345,-0.70249 1.0524,-1.48151 1.3532,-1.73115 0.56476,-0.46871 0.7645,-2.9034 0.29107,-3.54781 -0.69813,-0.95025 -1.92255,-1.64954 -3.1827,-1.81774 -1.33359,-0.178 -1.41407,-0.2519 -1.50915,-1.386 -0.0924,-1.10239 0.0726,-1.34985 2.06792,-3.10168 2.44835,-2.14952 3.38673,-3.48872 3.72574,-5.31715 0.3849,-2.07595 1.37068,-2.5849 5.00675,-2.5849 4.64173,0 6.18147,0.86144 9.27223,5.18753 0.65914,0.9226 1.51213,1.96133 1.89552,2.30829 0.88863,0.80421 0.89794,2.3198 0.0193,3.13839 -0.37278,0.34729 -1.29554,0.81653 -2.05058,1.04274 l -1.37279,0.4113 0.20981,2.00736 c 0.11539,1.10404 0.29487,2.14498 0.39884,2.3132 0.10397,0.16821 0.7567,0.30585 1.45052,0.30585 1.07417,0 1.42447,0.2028 2.35892,1.3656 1.17906,1.46718 3.0952,2.45986 5.85586,3.03369 1.12086,0.23298 2.07394,0.71602 2.85312,1.44603 0.68328,0.64016 1.68985,1.18806 2.41957,1.31705 0.75956,0.13426 1.39322,0.48935 1.61597,0.90556 0.34871,0.65157 0.43776,0.61027 1.84049,-0.8537 0.81071,-0.84612 1.89772,-1.80004 2.41556,-2.11983 0.51784,-0.31979 1.87272,-1.40467 3.01084,-2.41084 1.57693,-1.39411 2.0693,-2.04492 2.0693,-2.73515 0,-1.1721 1.52199,-2.28845 3.11995,-2.28845 0.64796,0 1.4145,-0.23639 1.70343,-0.52533 0.28893,-0.28892 0.52532,-0.40328 0.52532,-0.25413 0,0.14915 0.36466,-0.12208 0.81036,-0.60275 0.44568,-0.48065 1.32192,-0.96989 1.94719,-1.08719 0.62528,-0.1173 1.54514,-0.63942 2.04414,-1.16028 0.80122,-0.83628 0.84714,-0.99692 0.39284,-1.37393 -0.62035,-0.51486 -0.65497,-1.97085 -0.0653,-2.74655 0.79239,-1.04233 2.09603,-1.10104 3.0593,-0.13775 1.00264,1.00262 1.26831,1.05544 1.84055,0.36593 0.22906,-0.27598 2.76721,-2.22602 5.64035,-4.3334 2.87313,-2.10738 7.1795,-5.28033 9.56969,-7.05099 5.34728,-3.96127 9.05536,-6.49992 9.4941,-6.49992 0.18218,0 2.1624,-0.83788 4.40051,-1.86196 6.82923,-3.12481 11.92068,-3.7405 17.91739,-2.16669 4.87221,1.27868 7.13337,3.47232 9.18149,8.90737 2.61703,6.94484 2.84662,11.82488 0.9073,19.28605 -0.53588,2.06179 -1.24474,4.87695 -1.57522,6.25591 -0.33049,1.37896 -0.98734,3.40979 -1.45974,4.51296 -0.47239,1.10317 -1.83837,4.42993 -3.03554,7.39279 -2.60083,6.43669 -3.22138,7.68869 -5.86299,11.82907 -1.11441,1.74669 -2.8016,4.52083 -3.74931,6.16478 -0.94771,1.64393 -3.36085,5.43905 -5.36249,8.43359 -2.00167,2.99454 -3.63941,5.53362 -3.63941,5.64241 0,0.30829 -2.10123,3.31339 -2.40416,3.43833 -0.14858,0.0613 -0.27018,0.30844 -0.27018,0.54925 0,0.2408 -0.24717,0.53267 -0.54929,0.64859 -0.30209,0.11594 -0.45892,0.30113 -0.34849,0.41156 0.11042,0.11044 -0.13131,0.47796 -0.53717,0.81675 -0.40589,0.33878 -0.62513,0.62096 -0.48724,0.62708 0.13792,0.006 -0.0126,0.2878 -0.33429,0.62594 -0.53212,0.55924 -4.46442,6.02774 -5.26511,7.32199 -0.18386,0.29719 -1.50014,2.19058 -2.92507,4.20754 -2.18406,3.09149 -2.59078,3.87621 -2.59078,4.99868 l 0,1.3315 13.49138,-0.16224 c 7.42024,-0.0893 13.63275,-0.24963 13.80554,-0.35644 0.49025,-0.303 0.97551,0.16664 1.3729,1.32878 0.30664,0.89671 0.24909,1.29414 -0.3631,2.50719 l -0.72753,1.44157 -10.69516,0.11536 c -6.81038,0.0735 -10.93885,0.24667 -11.36598,0.47687 -0.43922,0.23671 -3.44049,0.33605 -8.69383,0.28776 -6.61982,-0.0609 -8.37384,0.0236 -10.02879,0.48232 -1.10317,0.30583 -3.20921,0.68155 -4.68011,0.83494 -5.26337,0.54887 -9.38998,1.28645 -11.19883,2.00164 -2.06485,0.8164 -10.15954,2.96699 -11.21651,2.97998 -0.37745,0.004 -1.93081,0.61027 -3.45192,1.34587 -3.01745,1.4592 -5.77328,2.208 -12.88159,3.50012 -4.79857,0.87227 -5.3261,0.8999 -9.55652,0.50077 z m -125.93356,-6.62656 c 1.83958,-0.21579 3.62842,-0.23186 4.78886,-0.043 1.13777,0.18518 2.50506,0.1777 3.54427,-0.0193 2.11512,-0.40112 5.13642,-0.40035 7.91995,10e-4 1.93869,0.28023 2.33289,0.2287 4.17868,-0.54618 3.03264,-1.27314 9.84511,-1.80398 26.94288,-2.09943 10.91912,-0.18869 15.49947,-0.39375 18.38614,-0.82316 7.68598,-1.14333 4.43872,-1.65513 -7.5216,-1.18548 -4.59654,0.1805 -15.80372,0.47403 -24.90485,0.6523 -9.10114,0.17826 -20.30832,0.46808 -24.90484,0.64406 -4.59655,0.17597 -19.26366,0.42084 -32.5936,0.54415 -20.599586,0.19055 -24.354772,0.29878 -25.026036,0.72128 -0.61702,0.38837 -2.298798,0.52001 -7.688745,0.60179 -3.794436,0.0576 -8.286559,0.27655 -9.982497,0.48661 -1.773678,0.2197 -6.353445,0.339 -10.781287,0.28084 -4.233771,-0.0556 -7.697616,-0.004 -7.697435,0.11386 6.51e-4,0.41294 1.093219,0.62594 4.940982,0.96326 2.131853,0.18688 3.910491,0.37432 3.952529,0.41651 0.259456,0.26046 74.013089,-0.42459 76.446599,-0.71006 z m 203.1553,-8.07198 c 0,-0.4703 1.54157,-0.41636 2.38826,0.0835 0.56619,0.33429 0.73799,0.33429 0.85906,0 0.18289,-0.50501 3.77283,-0.58452 3.77283,-0.0835 0,0.44136 4.24336,0.43623 4.51633,-0.005 0.11551,-0.18685 0.35002,-0.2532 0.52118,-0.14742 0.17116,0.10579 0.31118,0.0612 0.31118,-0.0991 0,-0.16028 -3.98062,-0.31677 -8.84585,-0.34775 -7.69118,-0.0489 -8.82106,0.008 -8.65587,0.43883 0.14412,0.37557 0.78693,0.49517 2.66146,0.49517 1.42476,0 2.47142,-0.14158 2.47142,-0.33429 z m -14.04031,-1.37811 c 0,-0.76278 -1.38664,-0.87222 -1.98077,-0.15633 -0.31007,0.37362 -0.23665,0.57953 0.35415,0.99336 0.85855,0.60134 1.62662,0.20609 1.62662,-0.83703 z m -6.07978,-1.46339 c 0.39967,-0.45965 0.92618,-0.83573 1.17002,-0.83573 0.24386,0 0.74399,-0.34573 1.11139,-0.76828 0.36741,-0.42255 1.88842,-1.48377 3.38003,-2.35824 2.14475,-1.25738 2.94413,-1.95238 3.82166,-3.32267 0.6103,-0.95299 2.02367,-2.74861 3.14082,-3.99024 1.11715,-1.24162 2.24514,-2.6726 2.50667,-3.17991 0.26149,-0.50733 0.66374,-1.04272 0.89387,-1.18975 0.23012,-0.14703 0.4184,-0.4855 0.4184,-0.75216 0,-0.26666 0.15043,-0.48483 0.33429,-0.48483 0.18386,0 0.33429,-0.20955 0.33429,-0.46566 0,-0.25613 0.22566,-0.55227 0.50145,-0.65811 0.2758,-0.10583 0.50144,-0.3866 0.50144,-0.62394 0,-0.23733 0.30671,-0.62305 0.68155,-0.85715 0.37486,-0.23411 0.59165,-0.57115 0.48173,-0.74901 -0.10992,-0.17784 -0.0317,-0.32335 0.17389,-0.32335 0.20557,0 0.28077,-0.15043 0.16714,-0.3343 -0.11363,-0.18386 -0.0687,-0.33429 0.0997,-0.33429 0.47416,0 7.09154,-10.21545 10.93574,-16.8818 1.06025,-1.83863 3.46037,-5.90029 5.33361,-9.02593 3.19508,-5.3312 4.56632,-8.1318 6.9563,-14.20746 1.80831,-4.59708 3.55814,-10.07146 4.25973,-13.32677 0.38175,-1.77141 0.91272,-3.9626 1.17986,-4.86931 0.97154,-3.29728 0.2926,-9.62743 -1.59899,-14.90831 -0.53332,-1.48883 -2.95382,-4.37742 -4.5512,-5.4313 -3.88703,-2.5645 -9.20873,-3.05435 -14.12381,-1.30007 -5.34687,1.9084 -7.33763,2.73137 -8.7468,3.61591 -1.92168,1.20623 -9.09196,6.67765 -10.53671,8.04022 -0.64258,0.60603 -1.22008,1.10188 -1.28336,1.10188 -0.0633,0 -2.4115,1.82794 -5.21835,4.0621 -4.84118,3.85345 -6.20684,5.10655 -13.78425,12.64827 l -3.18649,3.17148 -0.002,1.84291 c -10e-4,1.8368 -0.90477,4.01582 -1.66521,4.01582 -0.62284,0 -0.34935,0.84912 0.65008,2.01838 0.8484,0.99256 0.99123,1.43842 1.00288,3.13046 0.0135,1.9518 -0.006,1.99283 -1.82209,3.80874 l -1.83566,1.83566 -2.09228,-0.21245 c -1.71392,-0.17402 -2.22152,-0.37167 -2.80703,-1.09296 l -0.71475,-0.8805 -1.20848,1.09969 c -0.66467,0.60483 -1.14515,1.16302 -1.06776,1.24044 0.21485,0.21484 -0.90597,1.42139 -1.3204,1.42139 -0.20054,0 -0.80645,0.46435 -1.34646,1.0319 -0.54002,0.56754 -2.33573,1.69953 -3.99049,2.51553 -1.65474,0.81601 -3.37136,1.7869 -3.81468,2.15753 l -0.80605,0.6739 0.69526,1.23995 c 0.41014,0.73148 0.78721,2.19958 0.9195,3.58001 0.2182,2.27678 0.1967,2.37065 -0.79475,3.4713 -1.52323,1.69102 -1.62778,3.28261 -0.85161,12.96467 0.27872,3.47682 0.1499,3.42007 6.99239,3.08042 7.80143,-0.38725 31.98697,-0.96428 32.30029,-0.77062 0.14008,0.0865 0.3529,0.81241 0.47295,1.613 0.18594,1.23988 0.0795,1.67222 -0.71854,2.91727 -0.51526,0.80392 -1.73304,2.31548 -2.70618,3.35903 -0.97312,1.04356 -1.76933,2.08455 -1.76933,2.31332 0,0.75154 -2.39882,4.13929 -3.53152,4.98742 -0.61017,0.45688 -1.37495,1.41308 -1.6995,2.12488 -0.32456,0.7118 -1.19836,1.87603 -1.94178,2.58717 l -1.35168,1.29298 5.37198,0.003 c 5.31552,0.003 5.37962,-0.005 6.09865,-0.83213 z m -18.84684,-55.98584 c 1.54487,-0.58737 0.9426,-3.62366 -0.65362,-3.29524 -0.84943,0.17476 -1.62646,1.72483 -1.37229,2.7375 0.23842,0.94993 0.67688,1.07064 2.02591,0.55774 z m 8.72521,-23.50131 c 0.87958,-0.75659 0.88104,-0.76576 0.2486,-1.54679 -0.47088,-0.58152 -0.82607,-0.72543 -1.36684,-0.5538 -0.87782,0.27861 -1.30613,1.66868 -0.72859,2.36458 0.55325,0.66662 0.80711,0.63033 1.84683,-0.26399 z M 84.527031,340.05833 c 2.202338,-1.84261 2.948762,-2.7532 3.665677,-4.47193 0.693575,-1.66277 0.752146,-2.99127 0.153772,-3.48787 -0.883401,-0.73315 -9.018869,1.2509 -9.602745,2.3419 -0.226601,0.42341 -0.105119,1.55926 0.403682,3.77423 0.615239,2.67839 0.836088,3.18402 1.427611,3.26851 1.587183,0.22672 2.273956,-0.0208 3.952003,-1.42484 z m 0.632339,89.91876 c -2.013046,-0.39547 -2.994373,-1.11934 -3.738091,-2.75737 -1.084505,-2.38861 -0.863611,-4.9809 1.017785,-11.94429 2.308926,-8.54575 2.352463,-8.66554 3.825321,-10.52527 2.146557,-2.71038 6.691598,-4.28104 11.390787,-3.93639 4.555358,0.33411 6.962258,2.56847 6.956668,6.45798 -0.001,1.01125 -0.21406,2.44034 -0.47247,3.17579 l -0.46984,1.33718 -3.84291,0 -3.842919,0 0,-2.34005 0,-2.34006 -1.452202,0.0312 c -1.645834,0.0353 -1.908659,0.31575 -2.21584,2.36418 -0.119513,0.79696 -0.35379,1.44901 -0.520615,1.44901 -0.166824,0 -0.216728,0.22565 -0.110894,0.50145 0.105828,0.27579 0.03996,0.50144 -0.146344,0.50144 -0.186315,0 -0.260085,0.30085 -0.163924,0.66858 0.09616,0.36773 0.01155,0.66859 -0.187945,0.66859 -0.199543,0 -0.276208,0.22564 -0.170381,0.50144 0.105839,0.27579 0.03066,0.50144 -0.167144,0.50144 -0.197758,0 -0.267152,0.24083 -0.154197,0.53518 0.11295,0.29435 0.04892,0.63281 -0.142302,0.75216 -0.346243,0.21608 -1.755514,6.13618 -1.755514,7.37457 0,1.07802 0.892324,1.70498 2.102266,1.47711 1.683919,-0.31713 1.936526,-0.55825 2.600949,-2.48261 0.799783,-2.31642 0.828175,-2.1948 -0.476887,-2.04243 -1.420304,0.1658 -1.656597,-0.36844 -1.194449,-2.70056 0.686558,-3.46456 0.297309,-3.24773 5.83022,-3.24773 4.072032,0 4.897102,0.0839 5.062442,0.51479 0.19949,0.51985 -2.31464,13.05161 -2.89792,14.44484 -0.287097,0.68575 -0.537634,0.75215 -2.837627,0.75215 l -2.522723,0 -0.208075,-1.04039 c -0.164624,-0.82312 -0.269837,-0.93006 -0.503755,-0.51206 -0.415245,0.742 -2.107001,1.45541 -4.43082,1.86847 -2.206009,0.39211 -2.121556,0.39228 -4.16065,-0.008 z m 19.76668,-0.52908 c -0.47641,-0.19223 -0.57604,-1.45008 -0.11487,-1.45008 0.16664,0 0.22432,-0.30086 0.12816,-0.66858 -0.0962,-0.36772 -0.0209,-0.66859 0.16715,-0.66859 0.18809,0 0.2633,-0.30086 0.16714,-0.66858 -0.0962,-0.36773 -0.0116,-0.66859 0.18796,-0.66859 0.19952,0 0.27037,-0.24083 0.15742,-0.53517 -0.11296,-0.29435 -0.0495,-0.63283 0.14105,-0.75216 0.19053,-0.11935 0.95955,-2.84955 1.70895,-6.06712 2.71002,-11.63577 3.7217,-15.88657 3.87856,-16.29679 0.20178,-0.5277 9.66123,-0.57871 12.88391,-0.0694 3.79576,0.59978 4.18558,0.81566 5.14972,2.85195 0.47716,1.00778 0.86538,2.39233 0.8627,3.07679 -0.0107,2.72912 -2.01127,6.65687 -3.83324,7.52571 -1.17207,0.55892 -1.61605,1.57464 -0.68827,1.57464 0.27925,0 0.65841,0.5687 0.88631,1.32939 0.33932,1.13252 0.2819,1.90241 -0.38772,5.19864 -0.65552,3.22693 -0.71987,4.04444 -0.38763,4.92464 0.21911,0.58048 0.27428,1.17951 0.1226,1.33118 -0.15166,0.15167 -2.06843,0.23317 -4.25947,0.1811 l -3.98372,-0.0947 -0.11083,-1.16806 c -0.061,-0.64242 0.14084,-2.80241 0.44844,-4.79995 0.36148,-2.34741 0.44456,-3.74663 0.2349,-3.95629 -0.17842,-0.17843 -0.91009,-0.40296 -1.62593,-0.49897 l -1.30153,-0.17459 -1.10163,4.63035 c -1.61252,6.77775 -1.05781,6.13938 -5.30784,6.10827 -1.98244,-0.0145 -3.79246,-0.10227 -4.02229,-0.19501 z m 15.79847,-17.19141 c 0.9056,-0.4325 1.00952,-0.64941 1.10336,-2.30314 0.12305,-2.16866 -0.34252,-2.68171 -2.43349,-2.68171 l -1.3664,0 -0.6213,2.42363 c -0.34173,1.33299 -0.70024,2.63315 -0.79671,2.88922 -0.13975,0.371 0.15886,0.43348 1.46969,0.30752 0.9048,-0.0869 2.09498,-0.37292 2.64485,-0.63552 z m 7.85278,16.87942 c 0,-0.29337 1.26672,-3.11397 2.81494,-6.26801 1.54822,-3.15402 3.15346,-6.52437 3.56723,-7.48965 0.41374,-0.96526 0.88587,-1.75503 1.04915,-1.75503 0.16328,0 0.20391,-0.15044 0.0903,-0.3343 -0.11364,-0.18386 -0.0222,-0.33429 0.20313,-0.33429 0.22536,0 0.31848,-0.0913 0.20697,-0.20277 -0.11152,-0.11151 -0.0333,-0.38424 0.17395,-0.60604 0.2072,-0.22181 1.51444,-2.72551 2.90497,-5.5638 l 2.52825,-5.16051 4.51297,0 4.51295,0 0,14.04032 0,14.04032 -3.67723,0 -3.67721,0 0.067,-2.42363 0.067,-2.42362 -2.62155,0 c -2.51753,0 -2.62988,0.0332 -2.83131,0.83573 -0.11536,0.45965 -0.3662,0.83573 -0.55742,0.83573 -0.1912,0 -0.25467,0.15043 -0.14104,0.33429 0.11363,0.18387 0.0384,0.3343 -0.16714,0.3343 -0.20557,0 -0.28079,0.15043 -0.16715,0.33429 0.11363,0.18386 0.0384,0.33429 -0.16714,0.33429 -0.20557,0 -0.28513,0.14342 -0.1768,0.31869 0.10833,0.17529 -0.0666,0.62658 -0.38886,1.00288 -0.52599,0.61432 -0.97084,0.68419 -4.35589,0.68419 -3.22868,0 -3.77008,-0.0766 -3.77008,-0.53338 z m 16.12964,-10.46351 c 0.52923,-0.0315 0.58298,-0.48904 0.56364,-4.79846 -0.0242,-5.40182 0.19643,-5.48021 -2.46723,0.8764 -0.8376,1.99886 -1.52287,3.72884 -1.52282,3.84437 8e-5,0.18078 1.22516,0.20856 3.42641,0.0777 z m 9.06805,10.508 c -0.22118,-0.57641 6.07732,-26.36006 6.67188,-27.3121 0.3549,-0.56829 0.98595,-0.61393 8.4868,-0.61393 l 8.10341,0 0.19652,0.78299 c 0.10809,0.43065 -0.003,1.89736 -0.2466,3.25936 l -0.44312,2.47637 -5.05564,0.0921 -5.05563,0.0921 -0.20724,1.03617 c -0.11397,0.56989 -0.20722,1.46867 -0.20722,1.99727 l 0,0.96109 4.3458,0 c 5.02075,0 4.78658,-0.23112 3.5565,3.51008 l -0.76939,2.34005 -4.5256,0.0927 -4.5256,0.0928 -0.42066,2.08018 c -0.23136,1.14411 -0.82937,3.73495 -1.32892,5.75741 l -0.90827,3.67723 -3.73548,0.0946 c -3.10232,0.0786 -3.76871,0.008 -3.93154,-0.41633 z m 20.41902,0.13144 c -0.12151,-0.1966 0.48217,-3.24286 1.34151,-6.76944 0.85935,-3.52659 2.31631,-9.49584 3.2377,-13.265 0.9214,-3.76915 1.91168,-7.11626 2.20065,-7.43801 0.47364,-0.5274 1.3444,-0.58502 8.84139,-0.58502 7.30273,0 8.34094,0.0649 8.52057,0.53303 0.25237,0.65771 -0.51251,5.16166 -0.97395,5.73496 -0.23982,0.29798 -1.66381,0.41787 -4.96255,0.41787 l -4.62622,0 -0.5144,1.73214 c -0.28291,0.95268 -0.51439,1.85527 -0.51439,2.00576 0,0.15049 1.88512,0.27362 4.18916,0.27362 3.18753,0 4.23015,0.10683 4.3606,0.44678 0.0943,0.24573 -0.0984,1.56201 -0.42836,2.92507 l -0.5998,2.47828 -4.72918,0.0926 -4.72917,0.0926 -0.43013,2.16394 c -0.23656,1.19016 -0.56183,2.16394 -0.72282,2.16394 -0.16097,0 -0.19564,0.15702 -0.077,0.34893 0.11861,0.19192 0.0728,0.53039 -0.10175,0.75216 -0.17457,0.22177 -0.58416,1.53146 -0.91019,2.91042 -0.32602,1.37895 -0.74107,2.69524 -0.92232,2.92507 -0.42133,0.53423 -7.1229,0.58857 -7.44932,0.0604 z M 263.29748,325.4839 c -4.21856,-0.65244 -7.19954,-1.26102 -9.02592,-1.84268 -2.66744,-0.84951 -7.5379,-3.56961 -9.62333,-5.37453 l -1.54895,-1.34061 -0.86349,1.03432 c -1.24691,1.49359 -2.89267,2.10447 -4.53572,1.68358 -0.72226,-0.18501 -1.55333,-0.51429 -1.84684,-0.73174 -0.62765,-0.465 -1.63927,-2.32638 -1.63927,-3.01628 0,-0.59619 2.00392,-1.55441 6.07255,-2.90373 1.71629,-0.5692 3.42363,-1.18263 3.79408,-1.36319 0.37047,-0.18057 1.11542,-0.37541 1.65546,-0.43299 0.54004,-0.0576 1.03955,-0.27768 1.11003,-0.4891 0.0704,-0.21142 0.26572,-0.29938 0.43387,-0.19545 0.16817,0.10393 0.30575,0.0367 0.30575,-0.14934 0,-0.18608 0.4889,-0.48205 1.08645,-0.65771 2.60842,-0.76681 7.13328,-2.47696 7.92019,-2.9934 0.47183,-0.30965 1.15809,-0.7288 1.52502,-0.93144 0.36694,-0.20264 0.71523,-0.69154 0.77398,-1.08645 0.0588,-0.39491 0.24207,-0.71802 0.40738,-0.71802 0.1653,0 0.22141,-0.20624 0.12469,-0.4583 -0.0967,-0.25207 0.0679,-0.55187 0.36598,-0.66623 0.298,-0.11435 0.45876,-0.34232 0.35725,-0.50657 -0.45534,-0.73676 2.77566,-0.91614 4.32087,-0.2399 0.84203,0.36852 1.20383,0.36032 2.2558,-0.0511 1.5075,-0.58957 2.25795,-0.37057 2.25487,0.65801 -0.001,0.51173 -0.41399,1.03063 -1.2536,1.57712 -0.68822,0.44796 -1.94897,1.47869 -2.80166,2.29052 -0.8527,0.81181 -1.90573,1.66106 -2.34005,1.88719 -0.43435,0.22615 -0.7521,0.58691 -0.70614,0.80171 0.046,0.21479 -0.0461,0.39054 -0.20463,0.39054 -0.47702,0 -0.0593,2.40607 0.60686,3.4957 2.4647,4.03132 5.04941,10.81226 4.58382,12.02556 -0.19797,0.51593 -1.48664,0.62599 -3.5653,0.30451 z"
         id="path3347" />
    </g>
  </g>
</svg>
