<?xml version="1.0" encoding="UTF-8" standalone="no"?>
<svg
   xmlns:dc="http://purl.org/dc/elements/1.1/"
   xmlns:cc="http://creativecommons.org/ns#"
   xmlns:rdf="http://www.w3.org/1999/02/22-rdf-syntax-ns#"
   xmlns:svg="http://www.w3.org/2000/svg"
   xmlns="http://www.w3.org/2000/svg"
   xmlns:sodipodi="http://sodipodi.sourceforge.net/DTD/sodipodi-0.dtd"
   xmlns:inkscape="http://www.inkscape.org/namespaces/inkscape"
   version="1.1"
   id="svg2"
   viewBox="0 0 498 240.00001"
   height="240"
   width="498"
   inkscape:version="0.48.5 r10040"
   sodipodi:docname="logo_240h.svg">
  <sodipodi:namedview
     pagecolor="#ffffff"
     bordercolor="#666666"
     borderopacity="1"
     objecttolerance="10"
     gridtolerance="10"
     guidetolerance="10"
     inkscape:pageopacity="0"
     inkscape:pageshadow="2"
     inkscape:window-width="1920"
     inkscape:window-height="1018"
     id="namedview3813"
     showgrid="false"
     inkscape:zoom="1.8731659"
     inkscape:cx="213.44999"
     inkscape:cy="93.286355"
     inkscape:window-x="-8"
     inkscape:window-y="-8"
     inkscape:window-maximized="1"
     inkscape:current-layer="svg2" />
  <defs
     id="defs4" />
  <metadata
     id="metadata7">
    <rdf:RDF>
      <cc:Work
         rdf:about="">
        <dc:format>image/svg+xml</dc:format>
        <dc:type
           rdf:resource="http://purl.org/dc/dcmitype/StillImage" />
        <dc:title />
      </cc:Work>
    </rdf:RDF>
  </metadata>
  <g
     id="g3822"
     transform="matrix(0.84047993,0,0,0.84047993,28.953036,21.933333)">
    <g
       id="layer1"
       transform="translate(-2.6486429,-812.36216)">
      <g
         id="layer1-5"
         transform="matrix(0.77537804,0,0,0.77432857,-20.453559,713.96634)"
         style="fill:#000000;fill-opacity:1">
        <path
           inkscape:connector-curvature="0"
           id="path3347-4"
           d="m 492.48299,435.48557 c -2.75719,-0.26013 -14.18697,-0.5229 -25.39952,-0.58392 -11.21254,-0.061 -24.34571,-0.38418 -29.18481,-0.71813 -8.17372,-0.56408 -9.13803,-0.77824 -13.58291,-3.01665 -5.10315,-2.56991 -6.69449,-4.70542 -6.69449,-8.98377 0,-1.2482 -0.45547,-2.24694 -1.20851,-2.64995 -1.80872,-0.96799 -18.88553,-0.70657 -20.51475,0.31406 -0.7429,0.46539 -4.9003,1.04094 -9.35772,1.29547 -4.41149,0.25193 -11.7807,1.02694 -16.376,1.72227 -10.09578,1.52762 -12.43887,1.58555 -12.92467,0.31958 -0.30059,-0.78334 -0.74183,-0.81769 -2.41094,-0.18767 -1.55905,0.58848 -2.5484,0.5804 -4.17649,-0.0342 -1.84034,-0.69465 -2.44254,-0.62294 -4.38286,0.52188 -1.93189,1.13983 -3.47121,1.32716 -10.90598,1.32716 -6.92732,0 -10.08487,0.33748 -15.80637,1.68939 -7.11974,1.68228 -7.17723,1.68479 -13.68541,0.59654 -6.36127,-1.06368 -6.97729,-1.04683 -23.0902,0.6316 -27.27561,2.8412 -31.95287,3.14048 -47.30135,3.02666 -10.82602,-0.0803 -16.51106,0.17924 -21.55177,0.98383 -8.83799,1.41071 -30.75403,1.4575 -42.28122,0.0903 -10.67304,-1.26593 -16.31145,-1.25689 -23.39428,0.0375 -3.72274,0.68033 -11.45179,1.14508 -22.4188,1.34806 -15.51503,0.28714 -17.02366,0.21125 -20.6582,-1.03921 -2.94604,-1.01359 -5.681302,-1.35401 -11.001611,-1.36922 -3.894412,-0.0111 -11.442113,-0.41695 -16.772669,-0.90182 -6.18765,-0.56285 -11.62531,-0.68933 -15.039186,-0.34982 -4.224558,0.42014 -5.658089,0.32881 -6.827672,-0.43497 -0.814213,-0.53172 -3.070097,-0.97345 -5.013054,-0.98162 -2.473507,-0.0104 -4.033667,-0.40675 -5.203685,-1.32195 -1.199672,-0.9384 -2.73156,-1.31129 -5.430821,-1.32195 -6.077856,-0.0241 -7.763562,-0.60569 -10.023003,-3.45846 -1.492541,-1.88449 -1.952819,-3.03784 -1.666929,-4.17693 0.574785,-2.29008 5.451961,-3.89528 12.776096,-4.2049 7.473978,-0.31596 8.145805,-0.51072 6.711063,-1.94547 -0.65125,-0.65125 -0.909892,-1.59504 -0.656181,-2.39442 0.230327,-0.7257 0.665471,-3.77705 0.966983,-6.78075 0.301511,-3.00371 0.923635,-7.95369 1.382497,-10.99996 l 0.834287,-5.53867 -2.119298,-2.18656 c -5.527036,-5.70245 -6.53107,-10.76575 -5.521243,-27.84321 0.423892,-7.16868 0.908552,-15.40997 1.077002,-18.31398 0.190161,-3.27813 0.672083,-5.68566 1.271061,-6.34989 0.530627,-0.58841 1.459193,-3.92729 2.063478,-7.41973 0.604286,-3.49243 1.405762,-7.25223 1.78106,-8.3551 0.37529,-1.10287 0.969713,-3.18479 1.320927,-4.62648 0.351215,-1.4417 1.057806,-2.94561 1.570202,-3.34204 0.862935,-0.66764 1.230572,-3.67573 1.0773,-8.81468 -0.04189,-1.40372 -0.900644,-3.03099 -2.645966,-5.01378 -1.421195,-1.61455 -2.795365,-3.89798 -3.053726,-5.07429 -0.601896,-2.74039 0.182364,-8.01661 1.367798,-9.20203 2.853907,-2.85392 5.449547,-19.09353 4.457934,-27.89108 l -0.341719,-3.0317 -4.100705,-0.39968 c -2.255389,-0.21983 -5.003056,-0.70438 -6.105933,-1.07678 -1.102877,-0.37238 -3.358752,-1.0784 -5.013063,-1.5689 -2.391001,-0.70894 -3.448739,-1.54314 -5.157752,-4.06776 -1.182457,-1.74676 -2.332042,-4.28497 -2.554639,-5.64048 -0.222598,-1.35549 -0.656582,-3.06611 -0.964407,-3.80136 -1.222425,-2.91971 -1.311261,-3.90663 -0.724558,-8.04946 0.535745,-3.78312 1.00777,-4.76936 3.902243,-8.15325 1.811021,-2.11724 4.207824,-5.20995 5.326219,-6.87267 2.377505,-3.53463 7.17727,-8.11402 10.075206,-9.61259 1.118865,-0.57859 2.24591,-1.73205 2.504544,-2.56323 0.258633,-0.83118 3.358674,-4.24777 6.888981,-7.59242 l 6.418741,-6.08116 0.245691,-5.41024 c 0.226394,-4.98526 0.120015,-5.53591 -1.354273,-7.01021 -1.093184,-1.09318 -2.67908,-1.72776 -5.006856,-2.00346 -8.775948,-1.03938 -10.486796,-3.88544 -5.256741,-8.74476 3.459275,-3.21406 4.373032,-5.26809 4.373032,-9.83007 0,-1.81419 0.233534,-3.29853 0.518972,-3.29853 0.28543,0 0.404228,-1.20313 0.264,-2.67363 -0.147531,-1.54702 0.03387,-2.67364 0.430529,-2.67364 0.37703,0 0.87685,-0.87116 1.110708,-1.93592 0.610565,-2.77989 2.047698,-3.72723 7.677658,-5.06098 5.021347,-1.18957 8.863962,-2.65351 10.718789,-4.08363 0.551437,-0.42518 2.274902,-0.96601 3.829921,-1.20189 2.673384,-0.40549 3.02243,-0.25568 6.4114,2.75185 8.363844,7.42247 11.289253,9.53057 13.225508,9.53057 2.17065,0 4.60632,2.0514 4.60632,3.8796 0,0.66327 -0.87897,2.59193 -1.95326,4.28592 -2.46043,3.8797 -2.58126,4.76655 -1.20973,8.8789 0.61305,1.83812 1.42741,4.84596 1.8097,6.68408 0.38229,1.83812 0.8525,4.03315 1.04491,4.87785 0.26518,1.1641 -0.30225,2.18141 -2.34452,4.20338 -1.4819,1.46716 -2.694368,3.12376 -2.694368,3.68134 0,0.5749 1.537878,1.71782 3.552578,2.64017 4.09522,1.87486 6.2604,3.94747 6.58206,6.30066 0.20859,1.52601 0.46632,1.63616 3.40063,1.45343 1.74622,-0.10874 3.17461,0.0506 3.1742,0.35408 -0.002,1.4326 13.08906,-0.39118 27.07127,-3.77145 2.941,-0.711 6.70079,-1.57509 8.3551,-1.92023 1.65432,-0.34511 7.5196,-1.67261 13.03397,-2.94998 5.51436,-1.27738 15.13944,-3.12305 21.38907,-4.10152 24.20287,-3.78931 35.73324,-6.30249 62.97374,-13.72584 6.21923,-1.69481 7.18434,-2.24827 8.20115,-4.70304 0.87341,-2.10859 2.0158,-2.72674 2.0158,-1.09074 0,1.1894 2.63685,0.60199 3.13593,-0.69858 0.19203,-0.50042 0.76813,-0.90985 1.28024,-0.90985 0.5121,0 0.9311,-0.30079 0.9311,-0.66842 0,-0.36762 0.43412,-0.66841 0.96471,-0.66841 0.53059,0 1.39501,-0.61431 1.92091,-1.36515 0.5259,-0.75084 2.01398,-1.53681 3.30682,-1.74661 l 2.35063,-0.38146 0.48217,3.58474 c 0.26518,1.9716 0.78291,3.95688 1.1505,4.41173 0.36759,0.45485 0.49374,1.28201 0.28035,1.83812 -0.21341,0.55612 -0.0645,1.01113 0.33093,1.01113 0.39542,0 0.54582,0.45117 0.3342,1.00261 -0.2116,0.55144 -0.0757,1.00261 0.30214,1.00261 0.37779,0 0.50099,0.30078 0.27379,0.66841 -0.22721,0.36762 -0.0946,0.66841 0.29475,0.66841 0.38932,0 0.70786,0.69153 0.70786,1.53675 0,2.07012 -2.73462,2.99884 -10.3618,3.519 -3.3078,0.22559 -7.36773,0.81309 -9.02204,1.30554 -1.65431,0.49247 -5.26372,1.37838 -8.0209,1.9687 -2.75719,0.59032 -11.32952,2.99831 -19.04964,5.35108 -14.99802,4.57079 -36.22897,10.38162 -37.93111,10.38162 -0.56776,0 -1.9566,1.05275 -3.08634,2.33943 -1.12971,1.28669 -2.36401,2.33943 -2.74286,2.33943 -0.37886,0 -0.68883,0.30079 -0.68883,0.66841 0,0.36763 -0.46062,0.66841 -1.0236,0.66841 -0.56297,0 -1.21779,0.52637 -1.45515,1.16971 -0.23737,0.64334 -0.7543,1.38433 -1.14874,1.64664 -0.39445,0.26231 -0.74314,0.71349 -0.7749,1.00262 -0.1016,0.92522 -0.99329,3.12489 -2.38074,5.87295 -0.74243,1.4705 -1.39985,3.72638 -1.46093,5.01306 -0.10257,2.16083 -0.28965,2.35617 -2.45047,2.55878 -3.34311,0.31348 -3.96391,1.01758 -12.36556,14.0246 -1.20685,1.86838 -3.97154,5.07935 -6.18278,7.18079 -1.19477,1.13546 -2.17232,2.3869 -2.17232,2.78101 0,0.39409 -0.47024,0.89699 -1.04498,1.11753 -0.57474,0.22055 -0.87725,0.67239 -0.67225,1.00408 0.20501,0.33171 -0.11977,0.79209 -0.72171,1.02307 -0.60194,0.23098 -0.93442,0.58 -0.73884,0.77558 0.19559,0.19558 -1.58277,2.29399 -3.95191,4.66313 -3.9945,3.99449 -4.52157,4.30751 -7.25314,4.30751 -3.14036,0 -9.74177,2.16262 -11.27176,3.69262 -0.50743,0.50743 -1.11815,0.72704 -1.35716,0.48803 -0.54737,-0.54738 -0.005,35.57213 0.61282,40.79247 l 0.45736,3.86601 -2.73001,1.14705 c -1.71013,0.71854 -2.73255,1.58405 -2.73681,2.31678 -0.004,0.64333 -0.27942,1.16971 -0.61263,1.16971 -0.33321,0 -0.44852,0.60156 -0.25625,1.33681 0.19228,0.73526 0.0889,1.33811 -0.22968,1.33969 -0.31859,0.002 -0.59671,2.48304 -0.61804,5.51437 -0.0424,6.02172 -1.39582,9.466 -5.6023,14.25693 -2.60059,2.9619 -4.03532,5.77188 -5.08256,9.95439 -0.71119,2.84039 -3.99172,11.06843 -6.42427,16.11298 -0.36928,0.7658 -2.14043,3.32247 -3.93589,5.68147 -2.418237,3.17723 -3.274635,4.89553 -3.303651,6.62851 -0.02152,1.28669 -0.627368,3.09139 -1.346268,4.01045 -1.660613,2.12297 -1.699046,6.15633 -0.09237,9.69291 1.587009,3.49329 0.635616,7.7525 -1.863469,8.34245 -0.876638,0.20696 -1.923137,0.971 -2.325552,1.69788 -0.402417,0.72689 -1.032451,1.54721 -1.400075,1.82293 -0.423687,0.31777 -0.331154,0.71867 0.252735,1.09498 0.50663,0.32652 0.714465,0.92809 0.46186,1.33682 -0.252607,0.40873 -0.140751,0.74313 0.24857,0.74313 0.389321,0 0.707856,0.59754 0.707856,1.32785 0,0.8899 0.784464,1.65562 2.378497,2.32164 1.308169,0.5466 3.153436,1.60338 4.100591,2.34841 0.965589,0.75953 2.724216,1.3546 4.003296,1.3546 3.00664,0 5.0715,2.26064 6.83524,7.48337 0.75085,2.2234 1.8989,4.44749 2.55121,4.94241 1.39786,1.06059 4.60579,1.22972 5.19648,0.27398 0.2682,-0.43396 14.64201,-0.66384 40.97946,-0.65537 22.31149,0.007 48.53712,-0.29856 58.27917,-0.67937 29.07803,-1.1367 154.34421,-2.66315 164.0089,-1.99857 3.60141,0.24765 4.05353,0.12061 5.4823,-1.54043 1.14868,-1.33543 2.17932,-1.81034 3.92868,-1.81034 1.30432,0 2.37149,0.23551 2.37149,0.52337 0,0.71501 2.60313,0.48306 4.88947,-0.43568 1.0349,-0.41586 2.16284,-0.75611 2.50653,-0.75611 0.34369,0 0.6249,-1.85854 0.6249,-4.13009 0,-4.2176 -1.12285,-8.56967 -2.21101,-8.56967 -0.33311,0 -0.43252,-0.45117 -0.2209,-1.0026 0.2116,-0.55144 0.0757,-1.00261 -0.30215,-1.00261 -0.37778,0 -0.50098,-0.30079 -0.27378,-0.66842 0.2272,-0.36762 0.0624,-0.6684 -0.36626,-0.6684 -0.42866,0 -0.60624,-0.45118 -0.39463,-1.00261 0.2116,-0.55145 0.11757,-1.00262 -0.20898,-1.00262 -1.16456,0 -2.6712,-6.47541 -3.33471,-14.33226 -0.37076,-4.39031 -0.50694,-8.15011 -0.30263,-8.35511 0.71985,-0.72225 13.50448,-1.24216 32.34616,-1.31542 25.30789,-0.0984 39.87989,-2.17519 41.02929,-5.84746 0.21188,-0.6769 -0.28603,-3.34023 -1.10645,-5.91852 -1.16089,-3.64822 -1.74593,-4.63883 -2.63814,-4.467 -0.63056,0.12143 -2.37406,-0.9273 -3.87445,-2.3305 l -2.72798,-2.55129 0.75813,-3.51887 c 0.41698,-1.93538 1.20493,-3.96567 1.75101,-4.51176 0.5461,-0.54608 0.74581,-1.00202 0.44384,-1.0132 -0.30198,-0.0112 -0.0351,-0.31992 0.59291,-0.6861 0.62987,-0.36721 0.97247,-1.10743 0.764,-1.65069 -0.20788,-0.54171 -0.0776,-0.98493 0.28938,-0.98493 1.05895,0 2.81696,-5.10267 2.82566,-8.20153 0.005,-1.55497 0.45197,-4.48152 0.99468,-6.50345 0.54271,-2.02194 0.99031,-5.80066 0.99467,-8.39716 0.008,-4.37777 -0.1378,-4.86053 -1.99729,-6.64203 -1.10287,-1.05662 -2.00522,-2.46642 -2.00522,-3.13288 0,-0.66648 -0.30078,-1.21177 -0.66841,-1.21177 -0.40245,0 -0.66841,-2.74619 -0.66841,-6.90177 0,-6.59853 0.0773,-6.97297 1.75957,-8.52221 0.96776,-0.89124 3.07997,-3.66429 4.69381,-6.16235 2.33826,-3.61939 3.53564,-4.7997 5.89507,-5.81108 1.93933,-0.83129 3.51705,-2.15025 4.57301,-3.823 0.88668,-1.4046 2.10425,-2.96222 2.70568,-3.46137 1.12922,-0.93718 1.5286,-5.80526 0.58198,-7.09374 -1.39589,-1.89998 -3.84407,-3.2982 -6.36369,-3.63451 -2.66649,-0.35589 -2.82739,-0.50365 -3.01751,-2.77124 -0.1848,-2.2042 0.14508,-2.69898 4.13474,-6.20171 4.8954,-4.29792 6.77165,-6.97559 7.44949,-10.63146 0.76961,-4.15082 2.74064,-5.16843 10.01083,-5.16843 9.281,0 12.35965,1.72241 18.53952,10.37229 1.31794,1.8447 3.02346,3.92162 3.79003,4.61535 1.77679,1.60798 1.79541,4.63835 0.0386,6.2751 -0.74536,0.69441 -2.59039,1.63263 -4.10006,2.08493 l -2.74486,0.82238 0.41951,4.01364 c 0.23073,2.2075 0.58958,4.28883 0.79746,4.62518 0.20788,0.33634 1.513,0.61154 2.90028,0.61154 2.14775,0 2.84816,0.40549 4.71658,2.73047 2.35749,2.93358 6.18873,4.91839 11.70858,6.06575 2.24114,0.46585 4.14679,1.43166 5.70474,2.89128 1.36619,1.27998 3.37879,2.3755 4.83784,2.6334 1.5187,0.26845 2.7857,0.97844 3.23108,1.81064 0.69723,1.3028 0.87527,1.22023 3.67998,-1.70694 1.62101,-1.69178 3.79445,-3.59911 4.82985,-4.23853 1.0354,-0.63941 3.74444,-2.80859 6.02006,-4.8204 3.15303,-2.78746 4.13752,-4.08875 4.13752,-5.46884 0,-2.34356 3.04315,-4.57569 6.23822,-4.57569 1.29557,0 2.82826,-0.47265 3.40596,-1.05035 0.5777,-0.5777 1.05035,-0.80635 1.05035,-0.50813 0,0.29821 0.72913,-0.24411 1.62028,-1.20517 0.89114,-0.96106 2.64315,-1.93928 3.89336,-2.17382 1.25021,-0.23454 3.08944,-1.2785 4.08719,-2.31994 1.602,-1.67211 1.69383,-1.99329 0.78548,-2.74714 -1.24039,-1.02944 -1.3096,-3.94065 -0.13054,-5.49163 1.58436,-2.0841 4.19094,-2.20148 6.11698,-0.27543 2.00473,2.00473 2.53593,2.11034 3.68011,0.73169 0.45799,-0.55183 5.53295,-4.45087 11.27769,-8.6645 5.74473,-4.21364 14.35516,-10.55784 19.13427,-14.09821 10.69171,-7.92044 18.10589,-12.99639 18.98315,-12.99639 0.36426,0 4.32364,-1.67531 8.79866,-3.72292 13.65483,-6.24796 23.83502,-7.47902 35.82524,-4.33224 9.74181,2.5567 14.26293,6.94281 18.35808,17.81 5.23267,13.886 5.69173,23.64347 1.81411,38.56182 -1.07148,4.12249 -2.48883,9.75131 -3.14959,12.50849 -0.66081,2.75719 -1.97416,6.81776 -2.9187,9.02352 -0.94454,2.20574 -3.67577,8.85747 -6.06947,14.78163 -5.20027,12.86993 -6.44105,15.37329 -11.72286,23.65183 -2.22821,3.49244 -5.6017,9.03925 -7.49661,12.32626 -1.89491,3.28699 -6.71991,10.87521 -10.72212,16.86269 -4.00227,5.98748 -7.27688,11.06429 -7.27688,11.28181 0,0.61641 -4.20135,6.62503 -4.80703,6.87483 -0.29709,0.12255 -0.54023,0.61673 -0.54023,1.0982 0,0.48148 -0.4942,1.06506 -1.09828,1.29685 -0.60402,0.2318 -0.91759,0.60211 -0.6968,0.8229 0.22079,0.2208 -0.26255,0.95567 -1.07405,1.63305 -0.81156,0.67739 -1.24993,1.24161 -0.97423,1.25384 0.27577,0.0122 -0.0252,0.57543 -0.6684,1.25155 -1.06395,1.11817 -8.92646,12.05224 -10.52741,14.64005 -0.36762,0.59424 -2.99949,4.38001 -5.84857,8.41284 -4.36696,6.18134 -5.18017,7.75036 -5.18017,9.99471 l 0,2.66228 26.97555,-0.3244 c 14.83652,-0.17843 27.25822,-0.49913 27.60371,-0.71268 0.98026,-0.60583 1.95052,0.33319 2.74508,2.65684 0.61311,1.79295 0.49803,2.58759 -0.726,5.01306 l -1.45468,2.88237 -21.38462,0.23066 c -13.61713,0.14687 -21.87187,0.49321 -22.72589,0.95348 -0.87821,0.4733 -6.87915,0.67193 -17.38302,0.57537 -13.23612,-0.12165 -16.74322,0.047 -20.05225,0.96438 -2.20575,0.61149 -6.41672,1.36274 -9.35772,1.66943 -10.52394,1.09745 -18.77495,2.57221 -22.39168,4.00221 -4.12859,1.63238 -20.31366,5.93241 -22.42704,5.95837 -0.75469,0.009 -3.86058,1.22024 -6.90199,2.69103 -6.0333,2.91764 -11.54348,4.41484 -25.75634,6.99838 -9.59457,1.74406 -10.64934,1.79932 -19.10794,1.00128 z M 240.68302,422.23598 c 3.67819,-0.43147 7.25492,-0.46359 9.57516,-0.086 2.27494,0.37026 5.00878,0.35531 7.08667,-0.0387 4.22909,-0.80203 10.2701,-0.80051 15.83568,0.003 3.87633,0.56033 4.66451,0.45731 8.3551,-1.09205 6.06367,-2.5456 19.685,-3.607 53.87141,-4.19775 21.83241,-0.37727 30.99068,-0.78729 36.76246,-1.64587 15.36788,-2.28605 8.8751,-3.30938 -15.03918,-2.37032 -9.19062,0.3609 -31.59901,0.9478 -49.79642,1.30424 -18.19742,0.35643 -40.6058,0.93593 -49.79641,1.28779 -9.19062,0.35185 -38.51703,0.84145 -65.16981,1.088 -41.18818,0.381 -48.69655,0.59741 -50.03872,1.44219 -1.23371,0.77653 -4.59637,1.03971 -15.37339,1.20323 -7.58685,0.11511 -16.5687,0.55295 -19.95967,0.97298 -3.54641,0.43928 -12.703502,0.67781 -21.556824,0.56153 -8.465284,-0.11119 -15.391129,-0.009 -15.390766,0.22764 0.0013,0.82567 2.185854,1.25156 9.879329,1.92601 4.262568,0.37367 7.818896,0.74844 7.902951,0.83282 0.518774,0.52076 147.98671,-0.84897 152.85243,-1.41974 z m 406.20226,-16.13966 c 0,-0.94035 3.08232,-0.83249 4.77526,0.1671 1.13207,0.66841 1.47559,0.66841 1.71766,0 0.36569,-1.00974 7.54365,-1.16874 7.54365,-0.1671 0,0.88249 8.48445,0.87225 9.03025,-0.0109 0.23095,-0.37361 0.69985,-0.50626 1.04207,-0.29475 0.34223,0.21151 0.62221,0.12235 0.62221,-0.19812 0,-0.32048 -7.95914,-0.63337 -17.68699,-0.69532 -15.37826,-0.0979 -17.63742,0.0166 -17.30712,0.87743 0.28817,0.75094 1.57343,0.99007 5.32149,0.99007 2.84876,0 4.94152,-0.28308 4.94152,-0.66841 z m -28.07313,-2.75547 c 0,-1.52516 -2.77253,-1.74398 -3.96047,-0.31259 -0.61999,0.74704 -0.47319,1.15876 0.70811,1.9862 1.71662,1.20236 3.25236,0.41208 3.25236,-1.67361 z m -12.15631,-2.926 c 0.79912,-0.91907 1.85186,-1.67102 2.33943,-1.67102 0.48757,0 1.48755,-0.69128 2.22217,-1.53616 0.73462,-0.84488 3.77584,-2.96673 6.75827,-4.71521 4.28835,-2.51409 5.88667,-3.90372 7.64127,-6.64357 1.22027,-1.90549 4.04626,-5.49575 6.27997,-7.97835 2.2337,-2.4826 4.48908,-5.34377 5.01199,-6.35814 0.52285,-1.01438 1.32713,-2.08487 1.78727,-2.37885 0.46013,-0.29399 0.83658,-0.97076 0.83658,-1.50392 0,-0.53317 0.30078,-0.9694 0.6684,-0.9694 0.36763,0 0.66841,-0.419 0.66841,-0.93109 0,-0.51212 0.4512,-1.10424 1.00262,-1.31585 0.55146,-0.2116 1.00261,-0.773 1.00261,-1.24755 0,-0.47454 0.61327,-1.24577 1.36274,-1.71385 0.74953,-0.46808 1.18298,-1.14201 0.96321,-1.49761 -0.21977,-0.35559 -0.0633,-0.64654 0.34768,-0.64654 0.41104,0 0.56141,-0.30078 0.3342,-0.66841 -0.2272,-0.36762 -0.13747,-0.66841 0.19929,-0.66841 0.94808,0 14.1793,-20.42544 21.86567,-33.75461 2.11992,-3.67625 6.91889,-11.79741 10.66438,-18.04703 6.38843,-10.65956 9.13019,-16.25927 13.90888,-28.40735 3.61566,-9.1917 7.11438,-20.13756 8.51718,-26.64643 0.76332,-3.54188 1.82497,-7.92309 2.3591,-9.73603 1.94256,-6.5928 0.58505,-19.24971 -3.19713,-29.80866 -1.06635,-2.97686 -5.90605,-8.75253 -9.09997,-10.85972 -7.77199,-5.12763 -18.41256,-6.10706 -28.24009,-2.59943 -10.6909,3.81577 -14.67135,5.46129 -17.48893,7.22989 -3.84233,2.4118 -18.17908,13.35174 -21.06781,16.07614 -1.28481,1.21174 -2.43952,2.20317 -2.56602,2.20317 -0.12648,0 -4.82174,3.65492 -10.43392,8.12204 -9.67979,7.70484 -12.41038,10.21039 -27.56115,25.28979 l -6.3713,6.34129 -0.003,3.68484 c -0.003,3.6726 -1.80906,8.02948 -3.32955,8.02948 -1.24533,0 -0.6985,1.69779 1.29984,4.03569 1.69633,1.98459 1.98192,2.87606 2.00521,6.25924 0.0269,3.90257 -0.0124,3.98461 -3.6432,7.61544 l -3.67036,3.67036 -4.18343,-0.42478 c -3.42692,-0.34797 -4.44187,-0.74315 -5.61256,-2.18534 l -1.42912,-1.76054 -2.41632,2.1988 c -1.32898,1.20934 -2.2897,2.32543 -2.13494,2.4802 0.42959,0.42957 -1.81147,2.84204 -2.64012,2.84204 -0.40096,0 -1.61244,0.92845 -2.69219,2.06325 -1.07974,1.13478 -4.67022,3.39815 -7.97884,5.02972 -3.30862,1.63157 -6.74093,3.57283 -7.62734,4.31392 l -1.61167,1.34743 1.39015,2.47924 c 0.82006,1.46256 1.57401,4.39798 1.83852,7.15811 0.43627,4.55234 0.39329,4.74003 -1.58908,6.94074 -3.04565,3.38115 -3.2547,6.56347 -1.70277,25.92243 0.55729,6.9518 0.29972,6.83832 13.98105,6.15921 15.59871,-0.7743 63.95689,-1.92804 64.58337,-1.54085 0.28006,0.17309 0.7056,1.6244 0.94564,3.22515 0.37177,2.4791 0.15884,3.34356 -1.4367,5.83298 -1.03025,1.60741 -3.46515,4.62973 -5.41091,6.71628 -1.94574,2.08655 -3.53772,4.16798 -3.53772,4.6254 0,1.50268 -4.79635,8.27637 -7.06115,9.97218 -1.22002,0.91352 -2.74918,2.82541 -3.39811,4.24862 -0.64895,1.42323 -2.39608,3.75106 -3.88252,5.17297 l -2.70263,2.58527 10.74109,0.007 c 10.6282,0.007 10.75638,-0.0104 12.19403,-1.66382 z M 568.97222,288.47301 c 3.08891,-1.17441 1.88469,-7.24537 -1.30692,-6.58872 -1.69839,0.34943 -3.25204,3.44874 -2.74384,5.47355 0.47671,1.89935 1.35341,2.1407 4.05076,1.11517 z m 17.44574,-46.99009 c 1.7587,-1.51277 1.76164,-1.5311 0.49709,-3.09275 -0.94153,-1.16273 -1.65172,-1.45047 -2.73296,-1.1073 -1.75517,0.55707 -2.61156,3.33647 -1.45678,4.7279 1.1062,1.33288 1.61378,1.26032 3.69265,-0.52785 z m -447.37009,-25.2555 c 4.4035,-3.68423 5.89595,-5.50494 7.3294,-8.94147 1.38678,-3.32465 1.50389,-5.98094 0.30746,-6.97388 -1.76633,-1.46592 -18.03293,2.50113 -19.20037,4.68254 -0.45308,0.84659 -0.21018,3.1177 0.80715,7.54646 1.23015,5.35534 1.67173,6.36633 2.85446,6.53527 3.17352,0.45333 4.5467,-0.0417 7.9019,-2.84892 z m 1.26434,179.78959 c -4.02502,-0.79075 -5.98715,-2.2381 -7.47419,-5.51329 -2.16843,-4.77593 -1.72676,-9.95915 2.03503,-23.88221 4.61662,-17.08695 4.70367,-17.32647 7.6486,-21.04493 4.29197,-5.41932 13.37963,-8.55979 22.7755,-7.87067 9.1083,0.66804 13.92081,5.13556 13.90963,12.91252 -0.003,2.02194 -0.42802,4.87938 -0.9447,6.34988 l -0.93941,2.67364 -7.68378,0 -7.68379,0 0,-4.67886 0,-4.67886 -2.90363,0.0624 c -3.29079,0.0706 -3.8163,0.63134 -4.4305,4.72711 -0.23896,1.59349 -0.70739,2.89725 -1.04095,2.89725 -0.33356,0 -0.43334,0.45117 -0.22173,1.00262 0.2116,0.55143 0.0799,1.00261 -0.29261,1.00261 -0.37253,0 -0.52003,0.60156 -0.32776,1.33681 0.19228,0.73526 0.0231,1.33682 -0.37579,1.33682 -0.39898,0 -0.55227,0.45117 -0.34067,1.00261 0.21162,0.55144 0.0613,1.00262 -0.3342,1.00262 -0.39541,0 -0.53416,0.48152 -0.30831,1.07006 0.22584,0.58855 0.0978,1.2653 -0.28453,1.50392 -0.6923,0.43206 -3.51009,12.2691 -3.51009,14.74522 0,2.15546 1.78417,3.40905 4.20341,2.95343 3.36694,-0.63409 3.87202,-1.1162 5.20051,-4.96389 1.59914,-4.6316 1.65591,-4.38843 -0.95352,-4.08379 -2.83985,0.33153 -3.31231,-0.73667 -2.38826,-5.39966 1.37275,-6.92728 0.59446,-6.49373 11.65733,-6.49373 8.14189,0 9.7916,0.16775 10.1222,1.02929 0.39886,1.03943 -4.62805,26.09628 -5.79431,28.88198 -0.57404,1.37114 -1.07498,1.50391 -5.67374,1.50391 l -5.0441,0 -0.41604,-2.08023 c -0.32916,-1.64579 -0.53953,-1.85962 -1.00724,-1.02385 -0.83027,1.48362 -4.21288,2.91006 -8.85928,3.73594 -4.41084,0.78401 -4.24198,0.78435 -8.31908,-0.0166 z m 39.52281,-1.0579 c -0.95255,-0.38436 -1.15178,-2.89937 -0.22967,-2.89937 0.3332,0 0.44852,-0.60156 0.25625,-1.33681 -0.19228,-0.73525 -0.0419,-1.33682 0.3342,-1.33682 0.37609,0 0.52647,-0.60156 0.33421,-1.33681 -0.19228,-0.73525 -0.0231,-1.33682 0.3758,-1.33682 0.39896,0 0.54061,-0.48154 0.31477,-1.07007 -0.22585,-0.58854 -0.0989,-1.2653 0.28202,-1.50392 0.38096,-0.23862 1.91859,-5.69757 3.41698,-12.131 5.41861,-23.26534 7.44142,-31.76468 7.75506,-32.58489 0.40346,-1.0551 19.31731,-1.15709 25.76096,-0.1389 7.58949,1.19923 8.36893,1.63088 10.29668,5.70237 0.95408,2.01502 1.73029,4.7834 1.72494,6.15195 -0.0213,5.45679 -4.02147,13.31021 -7.66443,15.04741 -2.34351,1.11755 -3.23122,3.14843 -1.37617,3.14843 0.55834,0 1.31646,1.13711 1.77215,2.65808 0.67844,2.26443 0.56363,3.80381 -0.77523,10.3945 -1.3107,6.45214 -1.43936,8.08673 -0.77506,9.84668 0.4381,1.16064 0.54842,2.35837 0.24515,2.66163 -0.30326,0.30326 -4.13577,0.46622 -8.51669,0.36211 l -7.9653,-0.18928 -0.22161,-2.33549 c -0.1219,-1.28451 0.2816,-5.60333 0.89665,-9.59735 0.72277,-4.69355 0.88888,-7.49126 0.46966,-7.91048 -0.35674,-0.35674 -1.81969,-0.8057 -3.25099,-0.99767 l -2.60236,-0.34906 -2.20266,9.25822 c -3.22419,13.55188 -2.11506,12.27549 -10.61287,12.21327 -3.96381,-0.029 -7.58291,-0.20449 -8.04244,-0.38991 z m 31.58853,-34.37365 c 1.81072,-0.86475 2.0185,-1.29847 2.20612,-4.60505 0.24603,-4.33615 -0.68485,-5.36198 -4.86569,-5.36198 l -2.73205,0 -1.24228,4.84596 c -0.68326,2.66527 -1.4001,5.26489 -1.59299,5.7769 -0.27944,0.74179 0.31764,0.86672 2.93859,0.61488 1.80912,-0.17383 4.18885,-0.74565 5.2883,-1.27072 z m 15.70136,33.74984 c 0,-0.58657 2.53278,-6.22627 5.62838,-12.53266 3.09561,-6.30639 6.30525,-13.04528 7.13255,-14.97531 0.82728,-1.93002 1.77127,-3.50914 2.09775,-3.50914 0.32648,0 0.40771,-0.30079 0.18051,-0.66841 -0.22722,-0.36763 -0.0445,-0.6684 0.40615,-0.6684 0.4506,0 0.63681,-0.18245 0.41383,-0.40543 -0.22298,-0.22298 -0.0665,-0.76829 0.34782,-1.21178 0.41428,-0.44349 3.02806,-5.44957 5.80839,-11.12462 l 5.05515,-10.31826 9.02352,0 9.0235,0 0,28.07315 0,28.07314 -7.35249,0 -7.35248,0 0.134,-4.84596 0.13401,-4.84595 -5.24171,0 c -5.03372,0 -5.25836,0.0663 -5.66111,1.67101 -0.23067,0.91906 -0.73221,1.67103 -1.11453,1.67103 -0.38231,0 -0.50922,0.30078 -0.28201,0.6684 0.2272,0.36763 0.0768,0.66841 -0.33421,0.66841 -0.41102,0 -0.56141,0.30078 -0.3342,0.66841 0.2272,0.36762 0.0768,0.66841 -0.3342,0.66841 -0.41102,0 -0.57009,0.28674 -0.35349,0.63721 0.21659,0.35047 -0.13328,1.25282 -0.77751,2.00522 -1.05171,1.22831 -1.94117,1.36801 -8.70947,1.36801 -6.45564,0 -7.53815,-0.15314 -7.53815,-1.06648 z m 32.25069,-20.92145 c 1.05818,-0.0629 1.16564,-0.97782 1.12697,-9.59436 -0.0485,-10.80074 0.39276,-10.95748 -4.93313,1.75233 -1.67476,3.99668 -3.04493,7.45569 -3.04483,7.6867 1.7e-4,0.36146 2.44966,0.41701 6.85099,0.15533 z m 18.13127,21.01041 c -0.44226,-1.15251 12.15139,-52.70606 13.3402,-54.60965 0.70959,-1.13625 1.97138,-1.22752 16.96908,-1.22752 l 16.20249,0 0.39293,1.56557 c 0.21612,0.86106 -0.006,3.7937 -0.49307,6.51698 l -0.886,4.95141 -10.10858,0.18408 -10.10857,0.18408 -0.41436,2.07179 c -0.22789,1.13949 -0.41435,2.93656 -0.41435,3.99348 l 0,1.92167 8.6893,0 c 10.03882,0 9.5706,-0.46212 7.11109,7.01829 l -1.53837,4.67885 -9.04879,0.1854 -9.04878,0.1854 -0.84109,4.15925 c -0.46259,2.2876 -1.6583,7.46789 -2.65714,11.51175 l -1.81604,7.35249 -7.46898,0.18911 c -6.20297,0.15706 -7.53541,0.016 -7.86097,-0.83242 z m 40.82714,0.26281 c -0.24295,-0.3931 0.96409,-6.48398 2.68232,-13.53527 1.71823,-7.0513 4.63138,-18.98662 6.47366,-26.52292 1.84231,-7.5363 3.82235,-14.22874 4.40012,-14.87208 0.94703,-1.05451 2.68808,-1.16971 17.67808,-1.16971 14.60156,0 16.67743,0.12986 17.03658,1.06578 0.50463,1.31507 -1.02473,10.32055 -1.94738,11.46687 -0.47951,0.59577 -3.32673,0.83551 -9.92245,0.83551 l -9.24998,0 -1.02851,3.46336 c -0.56568,1.90484 -1.0285,3.70955 -1.0285,4.01045 0,0.3009 3.76923,0.54709 8.37607,0.54709 6.37337,0 8.45805,0.21359 8.71889,0.89332 0.18853,0.49133 -0.19688,3.12319 -0.85649,5.84857 l -1.19929,4.95525 -9.45584,0.18504 -9.45583,0.18503 -0.86002,4.32672 c -0.473,2.3797 -1.12336,4.32673 -1.44525,4.32673 -0.32186,0 -0.39118,0.31396 -0.15403,0.69768 0.23716,0.38373 0.14561,1.0605 -0.20344,1.50392 -0.34905,0.44342 -1.168,3.06211 -1.81988,5.8193 -0.65188,2.75717 -1.48176,5.38903 -1.84417,5.84857 -0.84243,1.06817 -14.24199,1.17683 -14.89466,0.12079 z M 496.49344,187.08633 c -8.43486,-1.30453 -14.39524,-2.52137 -18.04703,-3.68437 -5.33347,-1.69858 -15.07179,-7.13733 -19.24152,-10.7462 l -3.09709,-2.68051 -1.72651,2.06808 c -2.49316,2.9864 -5.7838,4.20784 -9.06902,3.36629 -1.44413,-0.36994 -3.10585,-1.02833 -3.69269,-1.4631 -1.25498,-0.92975 -3.27766,-4.65151 -3.27766,-6.03095 0,-1.19205 4.00677,-3.10798 12.14185,-5.80592 3.43166,-1.13808 6.84542,-2.36463 7.58614,-2.72566 0.74073,-0.36103 2.23024,-0.75061 3.31003,-0.86574 1.0798,-0.11512 2.07855,-0.55519 2.21947,-0.97793 0.14091,-0.42274 0.5313,-0.5986 0.86752,-0.3908 0.33623,0.2078 0.61132,0.0735 0.61132,-0.29861 0,-0.37205 0.97754,-0.96382 2.17233,-1.31506 5.21545,-1.53321 14.26276,-4.95259 15.83615,-5.98519 0.94342,-0.61915 2.31557,-1.45723 3.04924,-1.8624 0.73367,-0.40516 1.43007,-1.38272 1.54755,-2.17233 0.11747,-0.7896 0.48401,-1.43565 0.81453,-1.43565 0.33051,0 0.4427,-0.41236 0.2493,-0.91636 -0.1934,-0.504 0.13589,-1.10344 0.73176,-1.33209 0.59586,-0.22866 0.91731,-0.68446 0.71433,-1.01288 -0.91043,-1.47312 5.54984,-1.8318 8.63943,-0.47966 1.68362,0.73682 2.40701,0.72043 4.5104,-0.10218 3.01419,-1.17883 4.5147,-0.74095 4.50854,1.31566 -0.003,1.02318 -0.82776,2.06071 -2.50653,3.1534 -1.37607,0.89569 -3.89691,2.9566 -5.60184,4.57981 -1.70494,1.6232 -3.81042,3.32124 -4.67885,3.77339 -0.86845,0.45217 -1.50379,1.17351 -1.41189,1.60298 0.0919,0.42948 -0.0922,0.78087 -0.40916,0.78087 -0.95378,0 -0.11862,4.81087 1.21339,6.98954 4.92808,8.06051 10.09614,21.61877 9.16522,24.04471 -0.39586,1.03159 -2.97249,1.25165 -7.12871,0.60886 z"
           style="fill:#3d3e05;fill-opacity:1" />
      </g>
    </g>
    <rect
       ry="38.385796"
       rx="38.385796"
       y="-22.216608"
       x="-30.568638"
       height="277.79196"
       width="585.38342"
       id="rect3018"
       style="fill:none;stroke:#3d3e05;stroke-width:3.00000024;stroke-miterlimit:4;stroke-opacity:1;stroke-dasharray:none" />
  </g>
</svg>
