<?xml version="1.0" encoding="UTF-8" standalone="no"?>
<!-- Created with Inkscape (http://www.inkscape.org/) -->

<svg
   xmlns:dc="http://purl.org/dc/elements/1.1/"
   xmlns:cc="http://creativecommons.org/ns#"
   xmlns:rdf="http://www.w3.org/1999/02/22-rdf-syntax-ns#"
   xmlns:svg="http://www.w3.org/2000/svg"
   xmlns="http://www.w3.org/2000/svg"
   xmlns:sodipodi="http://sodipodi.sourceforge.net/DTD/sodipodi-0.dtd"
   xmlns:inkscape="http://www.inkscape.org/namespaces/inkscape"
   width="518"
   height="220"
   id="svg2"
   version="1.1"
   inkscape:version="0.48.5 r10040"
   sodipodi:docname="youtube.svg">
  <defs
     id="defs4" />
  <sodipodi:namedview
     id="base"
     pagecolor="#ffffff"
     bordercolor="#666666"
     borderopacity="1.0"
     inkscape:pageopacity="0.0"
     inkscape:pageshadow="2"
     inkscape:zoom="1.5059863"
     inkscape:cx="343.68235"
     inkscape:cy="109.55712"
     inkscape:document-units="px"
     inkscape:current-layer="layer1"
     showgrid="false"
     inkscape:window-width="1920"
     inkscape:window-height="1018"
     inkscape:window-x="-8"
     inkscape:window-y="-8"
     inkscape:window-maximized="1" />
  <metadata
     id="metadata7">
    <rdf:RDF>
      <cc:Work
         rdf:about="">
        <dc:format>image/svg+xml</dc:format>
        <dc:type
           rdf:resource="http://purl.org/dc/dcmitype/StillImage" />
        <dc:title></dc:title>
      </cc:Work>
    </rdf:RDF>
  </metadata>
  <g
     inkscape:label="Layer 1"
     inkscape:groupmode="layer"
     id="layer1"
     transform="translate(0,-832.36218)">
    <path
       style="fill:#ff2B27;stroke:none;stroke-width:1.02223526999999990"
       d="m 362.30601,834.87376 c -108.85019,-0.026 -119.85059,0.90754 -133.56144,11.08486 -10.78058,8.00224 -16.31271,21.5304 -18.87941,46.12837 -1.83931,17.62708 -1.85993,82.2283 -0.0319,99.54018 3.00748,28.48163 9.81085,42.42753 24.18226,49.54643 6.66587,3.302 11.11332,4.4187 23.51141,5.814 23.83852,2.6827 119.50478,3.7808 170.7133,1.9806 49.64614,-1.7455 56.88854,-2.968 67.91476,-11.5002 4.41543,-3.4168 6.5339,-6.0769 9.51956,-12.0112 7.51051,-14.9282 8.93999,-25.81209 9.64735,-72.99403 0.99808,-66.5737 -2.53604,-89.42491 -15.97243,-102.83049 -5.98544,-5.97171 -12.21435,-9.46125 -20.02942,-11.21264 -12.05481,-2.70155 -38.9183,-3.52727 -117.014,-3.54588 z m -63.9536,36.41713 0,18.68774 -22.3614,-0.19167 -0.0958,117.46124 -19.48636,0.096 0,-117.55708 -21.46694,0 0.0639,-18.43218 z m 67.44301,2.09018 16.44418,-0.71655 1.43751,42.74221 c 0,0 13.67845,-15.67822 25.50736,-10.45962 11.82892,5.21861 10.8959,28.40862 11.42864,50.12819 0.59743,24.35637 1.39021,47.4498 -11.72709,52.942 -13.11729,5.4923 -25.50294,-12.03991 -25.50294,-12.03991 l -0.14031,11.33441 -17.44735,-0.017 z m -69.77498,32.05887 19.58336,0 -0.23463,84.24641 c 0,0 3.10926,4.50325 7.33294,2.10397 5.14367,-2.92196 7.91682,-8.79695 7.91682,-8.79695 l 0.15751,-77.55343 18.97578,0 -0.19167,102.06046 -18.40078,-0.1598 -0.0639,-12.43932 c 0,0 -12.62872,16.36522 -22.31127,14.25242 -9.68255,-2.1127 -12.25307,-11.36113 -12.25307,-11.36113 z m 165.31258,-1.0371 c 15.32934,-0.13975 21.30427,9.01956 25.26432,19.31343 3.3938,14.33563 2.29005,35.74934 2.29005,35.74934 l -37.13579,0.0889 0.58983,26.2376 c 0,0 1.60584,5.47101 8.15578,7.0475 6.54994,1.57639 9.6087,-7.7833 9.6087,-7.7833 l -0.31176,-12.69041 19.08165,-0.0475 c 0,0 0.61818,13.242 -3.70777,22.50264 -3.87138,8.28756 -12.36096,16.17296 -28.3928,13.74626 -16.03183,-2.4267 -21.01317,-14.26934 -23.36237,-26.74572 -0.94133,-10.36267 -1.09596,-45.98954 1.3626,-56.38805 2.45856,-10.3985 11.22822,-20.89092 26.55756,-21.03069 z m -0.18119,15.64689 c -8.91326,-0.0851 -8.87425,9.32945 -8.87425,9.32945 l 0.005,15.48172 17.27525,0.0854 -0.14838,-15.59803 c 0,0 0.65556,-9.21338 -8.2577,-9.2985 z m -77.89476,4.89845 -0.0459,62.76863 c 0,0 5.73538,4.54966 10.34267,4.7351 4.60729,0.18553 7.04421,-4.70873 7.04421,-4.70873 l 0.0618,-62.5938 c 0,0 -2.84846,-5.30127 -7.77916,-4.64276 -4.9307,0.65849 -9.62356,4.44156 -9.62357,4.44156 z"
       id="path3100"
       inkscape:connector-curvature="0"
       sodipodi:nodetypes="cssssssssssssccccccccccccczczccccscsccccccsccszcccczcccszczzccccczcczcczcsc" />
    <path
       style="fill:#333333;stroke:none;stroke-width:1.02223526999999990"
       d="M 52.057589,869.94931 38.129633,924 24.585015,870.23681 l -22.0738974,0.0958 25.1406034,80.02191 0.03189,57.53258 20.732211,-0.1278 0.159775,-57.40478 25.460052,-80.24547 z m 45.457531,33.12681 c -22.446234,0.56431 -27.121182,21.97806 -27.121182,21.97806 l -0.127779,59.83277 c 0,0 1.365747,24.56085 26.929513,24.56535 25.563758,0 27.664238,-22.26532 27.664238,-22.26532 l -0.22362,-61.65363 c 0,0 -4.67494,-23.02153 -27.12117,-22.45723 z m 41.43247,1.2778 0.51112,92.35258 c 0,0 3.28706,10.8248 12.96961,12.9375 9.68255,2.1127 21.56277,-13.3208 21.56277,-13.3208 l 0.0639,11.4361 19.8697,0.1597 0.22362,-103.56508 -20.44471,0 0.0639,79.4788 c 0,0 -2.84254,5.06436 -7.98621,7.98618 -4.22368,2.3993 -6.45286,-1.59721 -6.45286,-1.59721 l 0.0639,-85.86777 z m -41.43247,16.89882 c 6.21073,-0.11262 7.6987,5.59035 7.6987,5.59035 l -0.0319,59.99245 c 0,0 -1.77682,5.33766 -7.634814,5.36676 -5.857992,0.03 -7.634821,-5.62232 -7.634821,-5.62232 l -0.032,-59.48133 c 0,0 1.424086,-5.73329 7.634821,-5.84591 z"
       id="path3100-1"
       inkscape:connector-curvature="0"
       sodipodi:nodetypes="cccccccccccccccsccsccccccsccccccsscccc" />
  </g>
</svg>
